<?xml version="1.0" encoding="utf-8"?>
<!-- Generator: Adobe Illustrator 25.2.0, SVG Export Plug-In . SVG Version: 6.00 Build 0)  -->
<svg version="1.1" id="Layer_1" xmlns="http://www.w3.org/2000/svg" xmlns:xlink="http://www.w3.org/1999/xlink" x="0px" y="0px"
	 viewBox="0 0 249.9 47.8" style="enable-background:new 0 0 249.9 47.8;" xml:space="preserve">
<style type="text/css">
	.st0{fill:#81C241;}
	.st1{fill:#FFFFFF;}
	.st2{fill:#44B8E9;}
	.st3{fill:#F79720;}
	.st4{fill:none;stroke:#000000;stroke-width:0;stroke-linecap:round;stroke-linejoin:round;}
</style>
<g>
	<g>
		<g>
			<path class="st0" d="M97.7,23.6h-5.4c-0.2,0-0.4,0.2-0.4,0.4v1.8c0,0.2,0.2,0.4,0.4,0.4h2.4c0.3,0,0.5,0.2,0.5,0.5v0.9
				c0,0.1-0.1,0.3-0.2,0.4c-0.5,0.4-1,0.7-1.6,0.9c-0.6,0.3-1.3,0.4-2.1,0.4c-0.8,0-1.5-0.1-2.2-0.4c-0.7-0.3-1.3-0.7-1.8-1.2
				c-0.5-0.5-0.9-1.1-1.2-1.7c-0.3-0.7-0.4-1.4-0.4-2.1c0-0.7,0.1-1.4,0.4-2.1c0.3-0.7,0.7-1.2,1.2-1.7c0.5-0.5,1.1-0.9,1.8-1.2
				c0.7-0.3,1.4-0.4,2.2-0.4c0.9,0,1.8,0.2,2.5,0.5c0.6,0.3,1.2,0.8,1.7,1.4c0.2,0.2,0.5,0.2,0.7,0l1.4-1.5c0.2-0.2,0.2-0.5,0-0.6
				c-0.7-0.8-1.6-1.4-2.6-1.9c-1.1-0.6-2.4-0.9-3.8-0.9c-1.2,0-2.3,0.2-3.4,0.7c-1.1,0.4-2,1-2.8,1.8c-0.8,0.8-1.4,1.6-1.9,2.7
				c-0.5,1-0.7,2.1-0.7,3.3c0,1.2,0.2,2.3,0.7,3.3c0.5,1,1.1,1.9,1.9,2.7c0.8,0.8,1.7,1.4,2.8,1.8c1.1,0.4,2.2,0.6,3.4,0.6
				c0.6,0,1.2-0.1,1.8-0.2c0.6-0.1,1.2-0.3,1.8-0.6c0.6-0.3,1.2-0.6,1.7-1c0.4-0.3,1.1-1,1.4-1.3c0.1-0.1,0.1-0.2,0.1-0.4v-4.7
				C98.1,23.9,97.9,23.6,97.7,23.6z"/>
			<path class="st0" d="M107.2,20.4c-0.5-0.3-1-0.4-1.5-0.4c-0.5,0-1,0.1-1.4,0.4c-0.4,0.3-0.8,0.7-1.2,1.2v-0.8
				c0-0.3-0.2-0.5-0.5-0.5h-2c-0.3,0-0.5,0.2-0.5,0.5v10.8c0,0.3,0.2,0.5,0.5,0.5h2c0.3,0,0.5-0.2,0.5-0.5v-6.1
				c0-0.5,0.1-0.9,0.2-1.2c0.1-0.3,0.3-0.6,0.5-0.8c0.2-0.2,0.4-0.3,0.6-0.4c0.2-0.1,0.4-0.1,0.6-0.1c0.4,0,0.7,0.1,1,0.4
				c0.2,0.1,0.4,0.3,0.6,0.4c0.2,0.2,0.5,0.1,0.7-0.1l1.1-1.7c0.1-0.2,0.1-0.4-0.1-0.6C108,20.9,107.6,20.7,107.2,20.4z"/>
			<path class="st0" d="M119.8,21.7c-0.6-0.5-1.3-1-2-1.3c-0.8-0.3-1.5-0.5-2.4-0.5c-0.9,0-1.7,0.2-2.4,0.5c-0.8,0.3-1.4,0.8-2,1.3
				c-0.6,0.6-1,1.2-1.3,2c-0.3,0.8-0.5,1.6-0.5,2.4c0,0.9,0.2,1.7,0.5,2.4c0.3,0.8,0.8,1.4,1.3,2c0.6,0.6,1.2,1,2,1.3
				c0.8,0.3,1.6,0.5,2.5,0.5c0.9,0,1.7-0.1,2.5-0.4c0.6-0.2,1.3-0.5,1.9-1c0.2-0.2,0.3-0.5,0.1-0.7l-1.2-1.2
				c-0.2-0.2-0.4-0.2-0.6-0.1c-0.3,0.2-0.6,0.4-1,0.5c-0.5,0.2-1.1,0.3-1.6,0.3c-0.4,0-0.8-0.1-1.2-0.2c-0.4-0.1-0.7-0.3-1-0.5
				c-0.3-0.2-0.5-0.5-0.7-0.8c-0.1-0.1-0.1-0.2-0.2-0.3c-0.2-0.3,0-0.7,0.4-0.7h8.3c0.2,0,0.4-0.2,0.5-0.4c0-0.1,0-0.1,0-0.2
				c0-0.2,0-0.4,0-0.6c0-0.9-0.2-1.7-0.5-2.5C120.9,22.9,120.4,22.3,119.8,21.7z M118,25h-5c-0.4,0-0.6-0.4-0.4-0.7
				c0.2-0.4,0.5-0.8,0.9-1.1c0.6-0.5,1.3-0.7,2-0.7c0.7,0,1.4,0.3,2,0.7c0.5,0.3,0.8,0.8,0.9,1.1C118.6,24.7,118.4,25,118,25z"/>
			<path class="st0" d="M133.8,21.7c-0.6-0.5-1.3-1-2-1.3c-0.8-0.3-1.5-0.5-2.4-0.5c-0.9,0-1.7,0.2-2.4,0.5c-0.8,0.3-1.4,0.8-2,1.3
				c-0.6,0.6-1,1.2-1.3,2c-0.3,0.8-0.5,1.6-0.5,2.4c0,0.9,0.2,1.7,0.5,2.4c0.3,0.8,0.8,1.4,1.3,2c0.6,0.6,1.2,1,2,1.3
				c0.8,0.3,1.6,0.5,2.5,0.5c0.9,0,1.7-0.1,2.5-0.4c0.6-0.2,1.3-0.5,1.9-1c0.2-0.2,0.3-0.5,0.1-0.7l-1.2-1.2
				c-0.2-0.2-0.4-0.2-0.6-0.1c-0.3,0.2-0.6,0.4-1,0.5c-0.5,0.2-1.1,0.3-1.6,0.3c-0.4,0-0.8-0.1-1.2-0.2c-0.4-0.1-0.7-0.3-1-0.5
				c-0.3-0.2-0.5-0.5-0.7-0.8c-0.1-0.1-0.1-0.2-0.2-0.3c-0.2-0.3,0-0.7,0.4-0.7h8.7c0-0.2,0.1-0.4,0.1-0.6c0-0.2,0-0.4,0-0.6
				c0-0.9-0.2-1.7-0.5-2.5C134.8,22.9,134.4,22.3,133.8,21.7z M131.9,25h-5c-0.4,0-0.6-0.4-0.4-0.7c0.2-0.4,0.5-0.8,0.9-1.1
				c0.5-0.4,1-0.6,1.6-0.7c0.8-0.1,1.8,0.1,2.4,0.7c0.4,0.4,0.7,0.8,0.9,1.1C132.5,24.6,132.3,25,131.9,25z"/>
			<path class="st0" d="M147.8,22.7c-0.3-0.6-0.6-1.1-1-1.5c-0.4-0.4-0.9-0.7-1.5-0.9c-0.5-0.2-1.1-0.3-1.7-0.3
				c-0.3,0-0.6,0-0.8,0.1c-0.3,0.1-0.6,0.1-0.9,0.2c-0.3,0.1-0.5,0.2-0.8,0.4c-0.2,0.1-0.3,0.2-0.4,0.3c-0.1,0.1-0.1,0.1-0.2,0.2
				l0-0.4c0-0.3-0.2-0.5-0.5-0.5h-2c-0.3,0-0.5,0.2-0.5,0.5v10.8c0,0.3,0.2,0.5,0.5,0.5h2c0.3,0,0.5-0.2,0.5-0.5v-7.9
				c0-0.1,0.1-0.3,0.2-0.4c0.3-0.3,0.7-0.5,1-0.6c0.4-0.2,0.9-0.2,1.3-0.2c0.3,0,0.6,0.1,0.9,0.2c0.3,0.1,0.5,0.3,0.7,0.5
				c0.2,0.2,0.4,0.5,0.5,0.8c0.1,0.3,0.2,0.7,0.2,1.1v6.5c0,0.3,0.2,0.5,0.5,0.5h2c0.3,0,0.5-0.2,0.5-0.5v-6.7
				C148.2,24.1,148,23.3,147.8,22.7z"/>
		</g>
		<g>
			<path d="M160.6,24.7c-0.4-0.4-0.8-0.8-1.4-1.1c-0.6-0.3-1.3-0.6-2.1-0.9c-0.6-0.2-1.2-0.4-1.6-0.6c-0.4-0.2-0.8-0.4-1-0.6
				c-0.3-0.2-0.4-0.4-0.5-0.6c-0.1-0.2-0.2-0.4-0.2-0.7c0-0.2,0.1-0.4,0.2-0.7c0.1-0.2,0.3-0.4,0.5-0.5c0.2-0.2,0.4-0.3,0.7-0.4
				c0.3-0.1,0.6-0.1,0.9-0.1c0.7,0,1.3,0.1,1.8,0.3c0.4,0.2,0.7,0.4,1.1,0.6c0.2,0.1,0.4,0.1,0.6,0l1.5-1.5c0.2-0.2,0.2-0.5,0-0.7
				c-0.6-0.5-1.2-0.8-1.9-1.1c-0.9-0.3-1.9-0.5-3.1-0.5c-0.7,0-1.4,0.1-2.1,0.3c-0.6,0.2-1.2,0.6-1.7,1c-0.5,0.4-0.9,0.9-1.1,1.5
				c-0.3,0.6-0.4,1.2-0.4,1.9c0,0.7,0.1,1.3,0.4,1.9c0.2,0.5,0.6,1,1,1.4c0.4,0.4,0.9,0.7,1.4,1c0.5,0.3,1.1,0.5,1.7,0.7
				c0.7,0.2,1.2,0.5,1.7,0.7c0.4,0.2,0.8,0.4,1,0.6c0.2,0.2,0.4,0.4,0.5,0.6c0.1,0.2,0.1,0.4,0.1,0.7c0,0.2-0.1,0.5-0.2,0.7
				c-0.1,0.2-0.3,0.4-0.5,0.5c-0.2,0.1-0.4,0.3-0.7,0.4c-0.3,0.1-0.5,0.1-0.8,0.1c-0.7,0-1.4-0.1-2-0.3c-0.5-0.2-1-0.5-1.6-0.9
				c-0.2-0.1-0.4-0.1-0.6,0l-1.6,1.6c-0.2,0.2-0.2,0.5,0.1,0.7c0.3,0.3,0.7,0.5,1,0.7c0.5,0.3,0.9,0.5,1.4,0.7
				c0.5,0.2,1,0.3,1.6,0.4c0.6,0.1,1.2,0.1,1.9,0.1c0.8,0,1.5-0.1,2.1-0.4c0.6-0.3,1.2-0.6,1.7-1c0.5-0.4,0.8-0.9,1.1-1.4
				c0.3-0.5,0.4-1.1,0.4-1.7c0-0.6-0.1-1.2-0.3-1.7C161.2,25.6,160.9,25.1,160.6,24.7z"/>
			<path d="M169.4,29.5c-0.1,0-0.2,0.1-0.2,0.1c-0.3,0.1-0.6,0.1-0.8,0.1c-0.2,0-0.3,0-0.5-0.1c-0.2,0-0.3-0.1-0.4-0.2
				c-0.1-0.1-0.2-0.3-0.3-0.4c-0.1-0.2-0.1-0.4-0.1-0.7v-5.3h2.5c0.3,0,0.5-0.2,0.5-0.5v-1.7c0-0.3-0.2-0.5-0.5-0.5H167v-3
				c0-0.3-0.2-0.5-0.5-0.5h-0.1c-0.2,0-0.4,0.2-0.5,0.4c-0.2,1.1-0.6,1.9-1.1,2.6c-0.5,0.7-1.2,1.2-2,1.6c-0.2,0.1-0.3,0.2-0.3,0.4
				v0.6c0,0.3,0.2,0.5,0.5,0.5h1.1v5.1c0,0.7,0.1,1.4,0.2,1.9c0.1,0.5,0.3,1,0.6,1.3c0.3,0.4,0.7,0.6,1.1,0.8
				c0.5,0.2,1.1,0.3,1.7,0.3c0.4,0,0.8,0,1.2-0.1c0.2-0.1,0.5-0.2,0.8-0.3c0.2-0.1,0.3-0.2,0.3-0.4V30
				C170,29.7,169.7,29.4,169.4,29.5z"/>
			<path d="M182,21.8c-0.6-0.5-1.2-1-2-1.3c-0.8-0.3-1.6-0.5-2.4-0.5c-0.9,0-1.7,0.2-2.4,0.5c-0.8,0.3-1.4,0.8-2,1.3
				c-0.6,0.6-1,1.2-1.3,2c-0.3,0.8-0.5,1.6-0.5,2.4c0,0.9,0.2,1.7,0.5,2.4c0.3,0.8,0.8,1.4,1.3,2c0.6,0.6,1.2,1,2,1.3
				c0.8,0.3,1.6,0.5,2.4,0.5c0.9,0,1.7-0.2,2.4-0.5c0.8-0.3,1.4-0.8,2-1.3c0.6-0.5,1-1.2,1.3-1.9c0.3-0.8,0.5-1.6,0.5-2.4
				c0-0.9-0.2-1.7-0.5-2.4C183,23,182.6,22.3,182,21.8z M180.6,27.6c-0.2,0.4-0.4,0.8-0.7,1.1c-0.3,0.3-0.7,0.6-1.1,0.8
				c-0.4,0.2-0.8,0.3-1.3,0.3c-0.5,0-0.9-0.1-1.3-0.3c-0.4-0.2-0.8-0.4-1.1-0.8c-0.3-0.3-0.5-0.7-0.7-1.1c-0.2-0.4-0.3-0.9-0.3-1.4
				c0-0.5,0.1-1,0.3-1.4c0.2-0.4,0.4-0.8,0.7-1.1c0.3-0.3,0.7-0.6,1.1-0.8c0.4-0.2,0.8-0.3,1.3-0.3c0.5,0,0.9,0.1,1.3,0.3
				c0.4,0.2,0.8,0.4,1.1,0.8c0.3,0.3,0.5,0.7,0.7,1.1c0.2,0.4,0.3,0.9,0.3,1.4C180.9,26.7,180.8,27.2,180.6,27.6z"/>
			<path d="M192.7,20.4c-0.5-0.3-1-0.4-1.5-0.4c-0.5,0-1,0.1-1.4,0.4c-0.4,0.3-0.8,0.7-1.2,1.2v-0.8c0-0.3-0.2-0.5-0.5-0.5h-2
				c-0.3,0-0.5,0.2-0.5,0.5v10.8c0,0.3,0.2,0.5,0.5,0.5h2c0.3,0,0.5-0.2,0.5-0.5v-6.1c0-0.5,0.1-0.9,0.2-1.2
				c0.1-0.3,0.3-0.6,0.5-0.8c0.2-0.2,0.4-0.3,0.6-0.4c0.2-0.1,0.4-0.1,0.6-0.1c0.4,0,0.7,0.1,1,0.4c0.2,0.1,0.4,0.3,0.6,0.4
				c0.2,0.2,0.5,0.1,0.7-0.1l1.1-1.7c0.1-0.2,0.1-0.4-0.1-0.6C193.4,20.9,193.1,20.7,192.7,20.4z"/>
			<path d="M204.8,20.3h-1.7c-0.3,0-0.5,0.2-0.6,0.5l-2.2,6.5c-0.1,0.2-0.3,0.2-0.4,0l-2.3-6.5c-0.1-0.3-0.3-0.4-0.6-0.4h-1.7
				c-0.5,0-0.8,0.5-0.6,0.9l4.1,10.6c0.1,0.1,0.1,0.3,0,0.5l-0.3,0.9c-0.2,0.6-0.5,1-0.9,1.2c-0.4,0.2-0.8,0.3-1.3,0.3
				c-0.2,0-0.4,0-0.7-0.1c-0.1,0-0.3-0.1-0.4-0.1c-0.3-0.1-0.2,0.1-0.2,0.2c0,0.1,0.4,1,0.6,1.7c0.1,0.4,0.4,0.7,0.7,0.8
				c0.2,0,0.3,0,0.4,0c0.9,0,1.6-0.2,2.3-0.7c0.6-0.5,1.1-1.2,1.5-2.3l4.9-13C205.6,20.8,205.2,20.3,204.8,20.3z"/>
		</g>
	</g>
	<g>
		<path class="st1" d="M70.7,14.9c-0.2,0-0.3,0-0.5,0c-0.8-0.1-1.4-0.8-1.5-1.6c0-0.2,0-0.3,0-0.4c0-0.2-0.1-0.4-0.2-0.6
			c-0.8-0.6-1.6-1-2.4-1.4c-0.1,0-0.2,0-0.2,0.1c-0.4,0.6-1.2,0.9-2,0.6c-0.7-0.2-1.2-0.9-1.2-1.7v0c0-0.1-0.1-0.2-0.2-0.2
			c-4.9-0.9-10.2,0.6-13.9,4.5c-5.6,6.1-5.3,15.4,0.8,21l0,0c0.8,0.8,1.7,1.4,2.6,1.9c1.3-1.1,2.6-2.1,4-3.2c0-0.3,0.1-0.5,0.2-0.7
			c0.4-0.6,0.8-1.1,1.2-1.6c2.1-2.7,4.5-5.2,7-7.6c1.2-1.2,2.5-2.2,3.7-3.4c1.1-1.1,2.2-2.2,3.5-3.1c0.1-0.4,0.4-0.8,0.8-0.9
			c-0.3-0.5-0.6-0.9-1-1.4C71.3,15,71,14.9,70.7,14.9z"/>
		<path d="M74.4,21.5c-0.1-0.3-0.3-0.6-0.7-0.6c-0.1,0-0.3-0.1-0.3-0.1c-0.6-0.3-1-0.9-1-1.6c0-0.4,0.2-0.8,0.4-1.1
			c0.2-0.3,0.2-0.6,0.1-0.9c-0.4-0.7-0.8-1.3-1.3-1.9c-0.2-0.2-0.5-0.4-0.8-0.3c-0.1,0-0.1,0-0.2,0c-0.2,0-0.3,0-0.5-0.1
			c-0.4-0.1-0.8,0.1-0.9,0.5l-0.6,2.1c0,0.1-0.2,0.4-0.4,0.5c0,0-0.1,0-0.1,0c-0.3-0.1-0.5,0-0.7,0.3c-2,3.7-5.6,7.8-8.9,10.9
			c-2.4,2.2-5.6,4.4-8.2,6c-0.3,0.2-0.3,0.5,0,0.7c6.1,4.7,15.2,4.5,20.5-1.2C74.1,31.1,75.3,26.1,74.4,21.5z"/>
		<polygon class="st0" points="49,34.7 49,34.7 49,34.7 49,34.7 		"/>
		<polygon class="st0" points="49,34.7 49,34.7 49,34.7 49,34.7 		"/>
		<path class="st0" d="M65.9,9.9c0,0.8-0.6,1.4-1.4,1.4c-0.8,0-1.4-0.6-1.4-1.4c0-0.8,0.6-1.4,1.4-1.4C65.3,8.5,65.9,9.1,65.9,9.9
			L65.9,9.9z"/>
		<path class="st2" d="M72,13.1c0,0.8-0.6,1.4-1.4,1.4c-0.8,0-1.4-0.6-1.4-1.4c0-0.8,0.6-1.4,1.4-1.4C71.3,11.7,72,12.4,72,13.1
			L72,13.1z"/>
		<path class="st3" d="M75.6,19.1c0,0.8-0.6,1.4-1.4,1.4s-1.4-0.6-1.4-1.4c0-0.8,0.6-1.4,1.4-1.4S75.6,18.4,75.6,19.1L75.6,19.1z"/>
		<path class="st0" d="M48.9,33.7c0,0,2-1.4,3.1-2v-4.5c0-0.4-0.4-0.8-0.8-0.8h-1.5c-0.4,0-0.8,0.4-0.8,0.8v6.1"/>
		<path class="st0" d="M55.8,29.5c0,0,1.6-1.7,2.7-2.5c0.2-0.2,0.4-0.5,0.4-0.8v-5.5c0-0.5-0.4-1-1-1h-1.1c-0.5,0-1,0.4-1,1v8.5"/>
		<path class="st0" d="M62.4,23.2c0,0,2.5-3.2,3.1-4.1v-2.9c0-0.5-0.4-0.9-0.9-0.9h-1.3c-0.5,0-0.9,0.4-0.9,0.9v6.7"/>
		<line class="st4" x1="67.5" y1="15.9" x2="67.5" y2="15.9"/>
		<path d="M68.8,14.3L66.1,16c-0.1,0.1-0.1,0.3,0.1,0.3l0.4,0c0.1,0,0.2,0,0.3,0.1c0.1,0,0.1,0.1,0.1,0.2c-1.4,2-5.9,8.1-13.7,14
			c-1.2,0.9-2.6,1.8-4.1,2.7c-0.2,0.1-0.4,0.1-0.5-0.1c-0.2-0.2-0.4-0.4-0.4-0.5c-1.8-2.3-2.7-5.1-2.8-8c-0.1-3.7,1.2-7.1,3.7-9.9
			c2.6-2.8,5.9-4.5,9.7-4.6c0.4,0,0.8,0,1.2,0c0.2,0,0.3-0.1,0.4-0.2c0-0.1,0.1-0.2,0.2-0.3c0.1-0.2,0-0.4-0.2-0.4
			c-0.4,0-0.8,0-1.2,0c-4,0.2-7.8,1.9-10.5,4.8c-2.8,3-4.2,6.8-4,10.8c0.1,3.2,1.3,6.2,3.3,8.7c0.2,0.2,0.1,0.5-0.1,0.6
			c-0.9,0.5-1.8,1-2.7,1.4c-0.4,0.2-0.6,0.7-0.3,1.1c0,0,0,0.1,0.1,0.1c0.2,0.4,0.7,0.5,1,0.3c2-1.1,8.3-4.6,12.4-8.4
			c3.6-3.4,7.5-7.9,9.3-11.7c0.1-0.1,0.2-0.1,0.3,0c0,0.1,0.1,0.1,0.1,0.2l0.1,0.3c0.1,0.2,0.3,0.1,0.3,0l0.8-3
			C69.1,14.3,68.9,14.2,68.8,14.3z"/>
		<path class="st0" d="M58.4,29.3c-2.3,2.1-5.2,4.2-7.8,5.7c4.7,2.3,9.5,1.3,10.9,0.5c0.2-0.1,0.1-0.4-0.1-0.5
			c-0.9-0.1-2.1-0.4-2.3-1.3c-0.2-1.4,1.5-0.3,4.1-0.9c2.6-0.6,3.7-4.2,4.2-6.9c0.6-3.5,0.2-6.4-0.1-7.8
			C65.5,21.8,61.8,26.1,58.4,29.3z"/>
	</g>
</g>
</svg>
